<mxfile host="app.diagrams.net" modified="2022-11-07T03:23:17.263Z" agent="5.0 (Windows NT 10.0; WOW64) AppleWebKit/537.36 (KHTML, like Gecko) Chrome/104.0.0.0 Safari/537.36" etag="Cg5agSTiwr9JdSjOIiRW" version="20.5.1" type="github" pages="2">
  <diagram id="8_zKDs2NcV0j2BOOCldE" name="第 2 页">
    <mxGraphModel dx="827" dy="1995" grid="1" gridSize="10" guides="1" tooltips="1" connect="1" arrows="1" fold="1" page="1" pageScale="1" pageWidth="827" pageHeight="1169" math="0" shadow="0">
      <root>
        <mxCell id="0" />
        <mxCell id="1" parent="0" />
        <mxCell id="qxVJZDrCRFdpv9TWmteu-2" value="学校老师：新增学校评价问卷" style="swimlane;" vertex="1" parent="1">
          <mxGeometry x="90" y="-80" width="290" height="690" as="geometry" />
        </mxCell>
        <mxCell id="qxVJZDrCRFdpv9TWmteu-25" style="edgeStyle=orthogonalEdgeStyle;rounded=0;orthogonalLoop=1;jettySize=auto;html=1;entryX=0.5;entryY=0;entryDx=0;entryDy=0;" edge="1" parent="qxVJZDrCRFdpv9TWmteu-2" source="qxVJZDrCRFdpv9TWmteu-4" target="qxVJZDrCRFdpv9TWmteu-5">
          <mxGeometry relative="1" as="geometry" />
        </mxCell>
        <mxCell id="qxVJZDrCRFdpv9TWmteu-4" value="登录" style="rounded=1;whiteSpace=wrap;html=1;" vertex="1" parent="qxVJZDrCRFdpv9TWmteu-2">
          <mxGeometry x="30" y="40" width="200" height="30" as="geometry" />
        </mxCell>
        <mxCell id="qxVJZDrCRFdpv9TWmteu-26" style="edgeStyle=orthogonalEdgeStyle;rounded=0;orthogonalLoop=1;jettySize=auto;html=1;entryX=0.5;entryY=0;entryDx=0;entryDy=0;" edge="1" parent="qxVJZDrCRFdpv9TWmteu-2" source="qxVJZDrCRFdpv9TWmteu-5" target="qxVJZDrCRFdpv9TWmteu-6">
          <mxGeometry relative="1" as="geometry" />
        </mxCell>
        <mxCell id="qxVJZDrCRFdpv9TWmteu-5" value="新增学校评价" style="rounded=0;whiteSpace=wrap;html=1;" vertex="1" parent="qxVJZDrCRFdpv9TWmteu-2">
          <mxGeometry x="30" y="90" width="200" height="30" as="geometry" />
        </mxCell>
        <mxCell id="qxVJZDrCRFdpv9TWmteu-27" value="保存" style="edgeStyle=orthogonalEdgeStyle;rounded=0;orthogonalLoop=1;jettySize=auto;html=1;entryX=0.5;entryY=0;entryDx=0;entryDy=0;" edge="1" parent="qxVJZDrCRFdpv9TWmteu-2" source="qxVJZDrCRFdpv9TWmteu-6" target="qxVJZDrCRFdpv9TWmteu-7">
          <mxGeometry relative="1" as="geometry" />
        </mxCell>
        <mxCell id="qxVJZDrCRFdpv9TWmteu-6" value="评价问卷组卷（可选负面清单、校用指标）" style="rounded=0;whiteSpace=wrap;html=1;" vertex="1" parent="qxVJZDrCRFdpv9TWmteu-2">
          <mxGeometry x="30" y="140" width="200" height="30" as="geometry" />
        </mxCell>
        <mxCell id="qxVJZDrCRFdpv9TWmteu-28" style="edgeStyle=orthogonalEdgeStyle;rounded=0;orthogonalLoop=1;jettySize=auto;html=1;exitX=0.5;exitY=1;exitDx=0;exitDy=0;entryX=0.5;entryY=0;entryDx=0;entryDy=0;" edge="1" parent="qxVJZDrCRFdpv9TWmteu-2" source="qxVJZDrCRFdpv9TWmteu-7" target="qxVJZDrCRFdpv9TWmteu-8">
          <mxGeometry relative="1" as="geometry" />
        </mxCell>
        <mxCell id="qxVJZDrCRFdpv9TWmteu-7" value="&lt;div style=&quot;text-align: justify;&quot;&gt;&lt;span style=&quot;background-color: initial;&quot;&gt;选择学生（可批量&lt;/span&gt;&lt;span style=&quot;background-color: initial;&quot;&gt;）、补充评价答卷&lt;/span&gt;&lt;/div&gt;" style="rounded=0;whiteSpace=wrap;html=1;" vertex="1" parent="qxVJZDrCRFdpv9TWmteu-2">
          <mxGeometry x="30" y="200" width="200" height="30" as="geometry" />
        </mxCell>
        <mxCell id="qxVJZDrCRFdpv9TWmteu-29" style="edgeStyle=orthogonalEdgeStyle;rounded=0;orthogonalLoop=1;jettySize=auto;html=1;entryX=0.5;entryY=0;entryDx=0;entryDy=0;" edge="1" parent="qxVJZDrCRFdpv9TWmteu-2" source="qxVJZDrCRFdpv9TWmteu-8" target="qxVJZDrCRFdpv9TWmteu-9">
          <mxGeometry relative="1" as="geometry" />
        </mxCell>
        <mxCell id="qxVJZDrCRFdpv9TWmteu-8" value="提交" style="rounded=0;whiteSpace=wrap;html=1;" vertex="1" parent="qxVJZDrCRFdpv9TWmteu-2">
          <mxGeometry x="30" y="250" width="200" height="30" as="geometry" />
        </mxCell>
        <mxCell id="qxVJZDrCRFdpv9TWmteu-30" style="edgeStyle=orthogonalEdgeStyle;rounded=0;orthogonalLoop=1;jettySize=auto;html=1;entryX=0.5;entryY=0;entryDx=0;entryDy=0;exitX=1;exitY=0.5;exitDx=0;exitDy=0;" edge="1" parent="qxVJZDrCRFdpv9TWmteu-2" source="qxVJZDrCRFdpv9TWmteu-9" target="qxVJZDrCRFdpv9TWmteu-22">
          <mxGeometry relative="1" as="geometry">
            <Array as="points">
              <mxPoint x="240" y="330" />
              <mxPoint x="240" y="560" />
              <mxPoint x="130" y="560" />
            </Array>
          </mxGeometry>
        </mxCell>
        <mxCell id="qxVJZDrCRFdpv9TWmteu-31" value="否" style="edgeLabel;html=1;align=center;verticalAlign=middle;resizable=0;points=[];" vertex="1" connectable="0" parent="qxVJZDrCRFdpv9TWmteu-30">
          <mxGeometry x="-0.1976" y="1" relative="1" as="geometry">
            <mxPoint as="offset" />
          </mxGeometry>
        </mxCell>
        <mxCell id="qxVJZDrCRFdpv9TWmteu-32" value="是" style="edgeStyle=orthogonalEdgeStyle;rounded=0;orthogonalLoop=1;jettySize=auto;html=1;entryX=0.5;entryY=0;entryDx=0;entryDy=0;exitX=0;exitY=0.5;exitDx=0;exitDy=0;" edge="1" parent="qxVJZDrCRFdpv9TWmteu-2" source="qxVJZDrCRFdpv9TWmteu-9" target="qxVJZDrCRFdpv9TWmteu-10">
          <mxGeometry relative="1" as="geometry">
            <Array as="points">
              <mxPoint x="55" y="330" />
              <mxPoint x="55" y="380" />
              <mxPoint x="130" y="380" />
            </Array>
          </mxGeometry>
        </mxCell>
        <mxCell id="qxVJZDrCRFdpv9TWmteu-9" value="是否发布给家长" style="rhombus;whiteSpace=wrap;html=1;" vertex="1" parent="qxVJZDrCRFdpv9TWmteu-2">
          <mxGeometry x="75" y="300" width="110" height="60" as="geometry" />
        </mxCell>
        <mxCell id="qxVJZDrCRFdpv9TWmteu-33" style="edgeStyle=orthogonalEdgeStyle;rounded=0;orthogonalLoop=1;jettySize=auto;html=1;entryX=0.5;entryY=0;entryDx=0;entryDy=0;" edge="1" parent="qxVJZDrCRFdpv9TWmteu-2" source="qxVJZDrCRFdpv9TWmteu-10" target="qxVJZDrCRFdpv9TWmteu-11">
          <mxGeometry relative="1" as="geometry" />
        </mxCell>
        <mxCell id="qxVJZDrCRFdpv9TWmteu-10" value="提交申请" style="rounded=0;whiteSpace=wrap;html=1;" vertex="1" parent="qxVJZDrCRFdpv9TWmteu-2">
          <mxGeometry x="30" y="390" width="200" height="30" as="geometry" />
        </mxCell>
        <mxCell id="qxVJZDrCRFdpv9TWmteu-34" style="edgeStyle=orthogonalEdgeStyle;rounded=0;orthogonalLoop=1;jettySize=auto;html=1;entryX=0.5;entryY=0;entryDx=0;entryDy=0;" edge="1" parent="qxVJZDrCRFdpv9TWmteu-2" source="qxVJZDrCRFdpv9TWmteu-11" target="qxVJZDrCRFdpv9TWmteu-21">
          <mxGeometry relative="1" as="geometry" />
        </mxCell>
        <mxCell id="qxVJZDrCRFdpv9TWmteu-11" value="审核通过" style="rounded=0;whiteSpace=wrap;html=1;" vertex="1" parent="qxVJZDrCRFdpv9TWmteu-2">
          <mxGeometry x="30" y="440" width="200" height="30" as="geometry" />
        </mxCell>
        <mxCell id="qxVJZDrCRFdpv9TWmteu-24" value="&lt;br&gt;&lt;span style=&quot;color: rgb(0, 0, 0); font-family: Helvetica; font-size: 12px; font-style: normal; font-variant-ligatures: normal; font-variant-caps: normal; font-weight: 400; letter-spacing: normal; orphans: 2; text-align: center; text-indent: 0px; text-transform: none; widows: 2; word-spacing: 0px; -webkit-text-stroke-width: 0px; background-color: rgb(248, 249, 250); text-decoration-thickness: initial; text-decoration-style: initial; text-decoration-color: initial; float: none; display: inline !important;&quot;&gt;记录留档&lt;/span&gt;&lt;br&gt;" style="edgeStyle=orthogonalEdgeStyle;rounded=0;orthogonalLoop=1;jettySize=auto;html=1;entryX=0.5;entryY=0;entryDx=0;entryDy=0;" edge="1" parent="qxVJZDrCRFdpv9TWmteu-2" source="qxVJZDrCRFdpv9TWmteu-21" target="qxVJZDrCRFdpv9TWmteu-22">
          <mxGeometry x="0.2" y="20" relative="1" as="geometry">
            <mxPoint as="offset" />
          </mxGeometry>
        </mxCell>
        <mxCell id="qxVJZDrCRFdpv9TWmteu-21" value="自动推送学校评价给家长" style="rounded=0;whiteSpace=wrap;html=1;" vertex="1" parent="qxVJZDrCRFdpv9TWmteu-2">
          <mxGeometry x="30" y="490" width="200" height="30" as="geometry" />
        </mxCell>
        <mxCell id="qxVJZDrCRFdpv9TWmteu-22" value="结束" style="rounded=1;whiteSpace=wrap;html=1;" vertex="1" parent="qxVJZDrCRFdpv9TWmteu-2">
          <mxGeometry x="30" y="570" width="200" height="30" as="geometry" />
        </mxCell>
        <mxCell id="qxVJZDrCRFdpv9TWmteu-3" value="学校老师：新增电子问卷" style="swimlane;startSize=23;" vertex="1" parent="1">
          <mxGeometry x="422" y="-80" width="278" height="530" as="geometry" />
        </mxCell>
        <mxCell id="V6BxBsEYJZl0AVlnk3J6-23" style="edgeStyle=orthogonalEdgeStyle;rounded=0;orthogonalLoop=1;jettySize=auto;html=1;entryX=0.5;entryY=0;entryDx=0;entryDy=0;" edge="1" parent="qxVJZDrCRFdpv9TWmteu-3" source="V6BxBsEYJZl0AVlnk3J6-1" target="V6BxBsEYJZl0AVlnk3J6-3">
          <mxGeometry relative="1" as="geometry" />
        </mxCell>
        <mxCell id="V6BxBsEYJZl0AVlnk3J6-1" value="登录" style="rounded=1;whiteSpace=wrap;html=1;" vertex="1" parent="qxVJZDrCRFdpv9TWmteu-3">
          <mxGeometry x="96" y="40" width="90" height="40" as="geometry" />
        </mxCell>
        <mxCell id="V6BxBsEYJZl0AVlnk3J6-3" value="新增电子问卷" style="rounded=0;whiteSpace=wrap;html=1;" vertex="1" parent="qxVJZDrCRFdpv9TWmteu-3">
          <mxGeometry x="96" y="110" width="90" height="50" as="geometry" />
        </mxCell>
        <mxCell id="V6BxBsEYJZl0AVlnk3J6-20" value="结束" style="rounded=1;whiteSpace=wrap;html=1;" vertex="1" parent="qxVJZDrCRFdpv9TWmteu-3">
          <mxGeometry x="86" y="430" width="110" height="50" as="geometry" />
        </mxCell>
        <mxCell id="V6BxBsEYJZl0AVlnk3J6-5" value="评价问卷组卷（可选家长用指标）" style="rounded=0;whiteSpace=wrap;html=1;" vertex="1" parent="qxVJZDrCRFdpv9TWmteu-3">
          <mxGeometry x="91" y="187" width="100" height="50" as="geometry" />
        </mxCell>
        <mxCell id="V6BxBsEYJZl0AVlnk3J6-7" value="选择学生（可批量&lt;br&gt;）" style="rounded=0;whiteSpace=wrap;html=1;" vertex="1" parent="qxVJZDrCRFdpv9TWmteu-3">
          <mxGeometry x="91" y="260" width="100" height="50" as="geometry" />
        </mxCell>
        <mxCell id="V6BxBsEYJZl0AVlnk3J6-9" value="手动推送给家长" style="rounded=0;whiteSpace=wrap;html=1;" vertex="1" parent="qxVJZDrCRFdpv9TWmteu-3">
          <mxGeometry x="96" y="350" width="90" height="50" as="geometry" />
        </mxCell>
        <mxCell id="V6BxBsEYJZl0AVlnk3J6-24" style="edgeStyle=orthogonalEdgeStyle;rounded=0;orthogonalLoop=1;jettySize=auto;html=1;entryX=0.5;entryY=0;entryDx=0;entryDy=0;" edge="1" parent="qxVJZDrCRFdpv9TWmteu-3" source="V6BxBsEYJZl0AVlnk3J6-3" target="V6BxBsEYJZl0AVlnk3J6-5">
          <mxGeometry relative="1" as="geometry" />
        </mxCell>
        <mxCell id="V6BxBsEYJZl0AVlnk3J6-4" style="edgeStyle=orthogonalEdgeStyle;rounded=0;orthogonalLoop=1;jettySize=auto;html=1;entryX=0.5;entryY=0;entryDx=0;entryDy=0;" edge="1" source="V6BxBsEYJZl0AVlnk3J6-5" target="V6BxBsEYJZl0AVlnk3J6-7" parent="qxVJZDrCRFdpv9TWmteu-3">
          <mxGeometry relative="1" as="geometry" />
        </mxCell>
        <mxCell id="V6BxBsEYJZl0AVlnk3J6-22" style="edgeStyle=orthogonalEdgeStyle;rounded=0;orthogonalLoop=1;jettySize=auto;html=1;entryX=0.5;entryY=0;entryDx=0;entryDy=0;" edge="1" parent="qxVJZDrCRFdpv9TWmteu-3" source="V6BxBsEYJZl0AVlnk3J6-9" target="V6BxBsEYJZl0AVlnk3J6-20">
          <mxGeometry relative="1" as="geometry" />
        </mxCell>
        <mxCell id="V6BxBsEYJZl0AVlnk3J6-6" value="保存" style="edgeStyle=orthogonalEdgeStyle;rounded=0;orthogonalLoop=1;jettySize=auto;html=1;exitX=0.5;exitY=1;exitDx=0;exitDy=0;entryX=0.5;entryY=0;entryDx=0;entryDy=0;" edge="1" source="V6BxBsEYJZl0AVlnk3J6-7" target="V6BxBsEYJZl0AVlnk3J6-9" parent="qxVJZDrCRFdpv9TWmteu-3">
          <mxGeometry relative="1" as="geometry" />
        </mxCell>
        <mxCell id="qxVJZDrCRFdpv9TWmteu-35" value="学校评价学员流程图" style="text;html=1;strokeColor=none;fillColor=none;align=center;verticalAlign=middle;whiteSpace=wrap;rounded=0;" vertex="1" parent="1">
          <mxGeometry x="334" y="-130" width="160" height="30" as="geometry" />
        </mxCell>
        <mxCell id="V6BxBsEYJZl0AVlnk3J6-25" value="家长提交电子问卷" style="swimlane;" vertex="1" parent="1">
          <mxGeometry x="740" y="-80" width="300" height="530" as="geometry" />
        </mxCell>
        <mxCell id="V6BxBsEYJZl0AVlnk3J6-32" style="edgeStyle=orthogonalEdgeStyle;rounded=0;orthogonalLoop=1;jettySize=auto;html=1;entryX=0.5;entryY=0;entryDx=0;entryDy=0;" edge="1" parent="V6BxBsEYJZl0AVlnk3J6-25" target="V6BxBsEYJZl0AVlnk3J6-27">
          <mxGeometry relative="1" as="geometry">
            <mxPoint x="140" y="80" as="sourcePoint" />
          </mxGeometry>
        </mxCell>
        <mxCell id="V6BxBsEYJZl0AVlnk3J6-33" style="edgeStyle=orthogonalEdgeStyle;rounded=0;orthogonalLoop=1;jettySize=auto;html=1;entryX=0.5;entryY=0;entryDx=0;entryDy=0;" edge="1" parent="V6BxBsEYJZl0AVlnk3J6-25" target="V6BxBsEYJZl0AVlnk3J6-29">
          <mxGeometry relative="1" as="geometry">
            <mxPoint x="140" y="160" as="sourcePoint" />
          </mxGeometry>
        </mxCell>
        <mxCell id="V6BxBsEYJZl0AVlnk3J6-34" style="edgeStyle=orthogonalEdgeStyle;rounded=0;orthogonalLoop=1;jettySize=auto;html=1;entryX=0.5;entryY=0;entryDx=0;entryDy=0;" edge="1" parent="V6BxBsEYJZl0AVlnk3J6-25" target="V6BxBsEYJZl0AVlnk3J6-30">
          <mxGeometry relative="1" as="geometry">
            <mxPoint x="140" y="225" as="sourcePoint" />
          </mxGeometry>
        </mxCell>
        <mxCell id="V6BxBsEYJZl0AVlnk3J6-35" style="edgeStyle=orthogonalEdgeStyle;rounded=0;orthogonalLoop=1;jettySize=auto;html=1;" edge="1" parent="V6BxBsEYJZl0AVlnk3J6-25" target="V6BxBsEYJZl0AVlnk3J6-31">
          <mxGeometry relative="1" as="geometry">
            <mxPoint x="140" y="308" as="sourcePoint" />
          </mxGeometry>
        </mxCell>
        <mxCell id="V6BxBsEYJZl0AVlnk3J6-47" value="登录" style="rounded=1;whiteSpace=wrap;html=1;" vertex="1" parent="V6BxBsEYJZl0AVlnk3J6-25">
          <mxGeometry x="90" y="40" width="120" height="60" as="geometry" />
        </mxCell>
        <mxCell id="V6BxBsEYJZl0AVlnk3J6-49" value="查看电子问卷" style="rounded=0;whiteSpace=wrap;html=1;" vertex="1" parent="V6BxBsEYJZl0AVlnk3J6-25">
          <mxGeometry x="90" y="139" width="120" height="60" as="geometry" />
        </mxCell>
        <mxCell id="V6BxBsEYJZl0AVlnk3J6-46" style="edgeStyle=orthogonalEdgeStyle;rounded=0;orthogonalLoop=1;jettySize=auto;html=1;entryX=0.5;entryY=0;entryDx=0;entryDy=0;" edge="1" source="V6BxBsEYJZl0AVlnk3J6-47" target="V6BxBsEYJZl0AVlnk3J6-49" parent="V6BxBsEYJZl0AVlnk3J6-25">
          <mxGeometry relative="1" as="geometry" />
        </mxCell>
        <mxCell id="V6BxBsEYJZl0AVlnk3J6-51" value="填写电子问卷" style="rounded=0;whiteSpace=wrap;html=1;" vertex="1" parent="V6BxBsEYJZl0AVlnk3J6-25">
          <mxGeometry x="90" y="238" width="120" height="60" as="geometry" />
        </mxCell>
        <mxCell id="V6BxBsEYJZl0AVlnk3J6-48" style="edgeStyle=orthogonalEdgeStyle;rounded=0;orthogonalLoop=1;jettySize=auto;html=1;entryX=0.5;entryY=0;entryDx=0;entryDy=0;" edge="1" source="V6BxBsEYJZl0AVlnk3J6-49" target="V6BxBsEYJZl0AVlnk3J6-51" parent="V6BxBsEYJZl0AVlnk3J6-25">
          <mxGeometry relative="1" as="geometry" />
        </mxCell>
        <mxCell id="V6BxBsEYJZl0AVlnk3J6-53" value="提交" style="rounded=0;whiteSpace=wrap;html=1;" vertex="1" parent="V6BxBsEYJZl0AVlnk3J6-25">
          <mxGeometry x="90" y="336" width="120" height="60" as="geometry" />
        </mxCell>
        <mxCell id="V6BxBsEYJZl0AVlnk3J6-50" style="edgeStyle=orthogonalEdgeStyle;rounded=0;orthogonalLoop=1;jettySize=auto;html=1;entryX=0.5;entryY=0;entryDx=0;entryDy=0;" edge="1" source="V6BxBsEYJZl0AVlnk3J6-51" target="V6BxBsEYJZl0AVlnk3J6-53" parent="V6BxBsEYJZl0AVlnk3J6-25">
          <mxGeometry relative="1" as="geometry" />
        </mxCell>
        <mxCell id="V6BxBsEYJZl0AVlnk3J6-54" value="结束" style="rounded=1;whiteSpace=wrap;html=1;" vertex="1" parent="V6BxBsEYJZl0AVlnk3J6-25">
          <mxGeometry x="95" y="440" width="110" height="50" as="geometry" />
        </mxCell>
        <mxCell id="V6BxBsEYJZl0AVlnk3J6-52" style="edgeStyle=orthogonalEdgeStyle;rounded=0;orthogonalLoop=1;jettySize=auto;html=1;entryX=0.5;entryY=0;entryDx=0;entryDy=0;" edge="1" source="V6BxBsEYJZl0AVlnk3J6-53" target="V6BxBsEYJZl0AVlnk3J6-54" parent="V6BxBsEYJZl0AVlnk3J6-25">
          <mxGeometry relative="1" as="geometry" />
        </mxCell>
        <mxCell id="V6BxBsEYJZl0AVlnk3J6-28" style="edgeStyle=orthogonalEdgeStyle;rounded=0;orthogonalLoop=1;jettySize=auto;html=1;entryX=0;entryY=0.5;entryDx=0;entryDy=0;" edge="1" parent="1" source="V6BxBsEYJZl0AVlnk3J6-9" target="V6BxBsEYJZl0AVlnk3J6-49">
          <mxGeometry relative="1" as="geometry">
            <mxPoint x="820" y="60" as="targetPoint" />
          </mxGeometry>
        </mxCell>
        <mxCell id="V6BxBsEYJZl0AVlnk3J6-36" value="家长提交成长记录" style="swimlane;" vertex="1" parent="1">
          <mxGeometry x="1060" y="-80" width="290" height="530" as="geometry" />
        </mxCell>
        <mxCell id="V6BxBsEYJZl0AVlnk3J6-42" style="edgeStyle=orthogonalEdgeStyle;rounded=0;orthogonalLoop=1;jettySize=auto;html=1;entryX=0.5;entryY=0;entryDx=0;entryDy=0;" edge="1" parent="V6BxBsEYJZl0AVlnk3J6-36" source="V6BxBsEYJZl0AVlnk3J6-37" target="V6BxBsEYJZl0AVlnk3J6-38">
          <mxGeometry relative="1" as="geometry" />
        </mxCell>
        <mxCell id="V6BxBsEYJZl0AVlnk3J6-37" value="登录" style="rounded=1;whiteSpace=wrap;html=1;" vertex="1" parent="V6BxBsEYJZl0AVlnk3J6-36">
          <mxGeometry x="90" y="40" width="120" height="60" as="geometry" />
        </mxCell>
        <mxCell id="V6BxBsEYJZl0AVlnk3J6-43" style="edgeStyle=orthogonalEdgeStyle;rounded=0;orthogonalLoop=1;jettySize=auto;html=1;entryX=0.5;entryY=0;entryDx=0;entryDy=0;" edge="1" parent="V6BxBsEYJZl0AVlnk3J6-36" source="V6BxBsEYJZl0AVlnk3J6-38" target="V6BxBsEYJZl0AVlnk3J6-39">
          <mxGeometry relative="1" as="geometry" />
        </mxCell>
        <mxCell id="V6BxBsEYJZl0AVlnk3J6-38" value="查看电子问卷" style="rounded=0;whiteSpace=wrap;html=1;" vertex="1" parent="V6BxBsEYJZl0AVlnk3J6-36">
          <mxGeometry x="90" y="139" width="120" height="60" as="geometry" />
        </mxCell>
        <mxCell id="V6BxBsEYJZl0AVlnk3J6-44" style="edgeStyle=orthogonalEdgeStyle;rounded=0;orthogonalLoop=1;jettySize=auto;html=1;entryX=0.5;entryY=0;entryDx=0;entryDy=0;" edge="1" parent="V6BxBsEYJZl0AVlnk3J6-36" source="V6BxBsEYJZl0AVlnk3J6-39" target="V6BxBsEYJZl0AVlnk3J6-40">
          <mxGeometry relative="1" as="geometry" />
        </mxCell>
        <mxCell id="V6BxBsEYJZl0AVlnk3J6-39" value="填写电子问卷" style="rounded=0;whiteSpace=wrap;html=1;" vertex="1" parent="V6BxBsEYJZl0AVlnk3J6-36">
          <mxGeometry x="90" y="238" width="120" height="60" as="geometry" />
        </mxCell>
        <mxCell id="V6BxBsEYJZl0AVlnk3J6-45" style="edgeStyle=orthogonalEdgeStyle;rounded=0;orthogonalLoop=1;jettySize=auto;html=1;entryX=0.5;entryY=0;entryDx=0;entryDy=0;" edge="1" parent="V6BxBsEYJZl0AVlnk3J6-36" source="V6BxBsEYJZl0AVlnk3J6-40" target="V6BxBsEYJZl0AVlnk3J6-41">
          <mxGeometry relative="1" as="geometry" />
        </mxCell>
        <mxCell id="V6BxBsEYJZl0AVlnk3J6-40" value="提交" style="rounded=0;whiteSpace=wrap;html=1;" vertex="1" parent="V6BxBsEYJZl0AVlnk3J6-36">
          <mxGeometry x="90" y="336" width="120" height="60" as="geometry" />
        </mxCell>
        <mxCell id="V6BxBsEYJZl0AVlnk3J6-41" value="结束" style="rounded=1;whiteSpace=wrap;html=1;" vertex="1" parent="V6BxBsEYJZl0AVlnk3J6-36">
          <mxGeometry x="95" y="440" width="110" height="50" as="geometry" />
        </mxCell>
      </root>
    </mxGraphModel>
  </diagram>
  <diagram name="Page-1" id="c7488fd3-1785-93aa-aadb-54a6760d102a">
    <mxGraphModel dx="827" dy="826" grid="1" gridSize="10" guides="1" tooltips="1" connect="1" arrows="1" fold="1" page="1" pageScale="1" pageWidth="1100" pageHeight="850" background="none" math="0" shadow="0">
      <root>
        <mxCell id="0" />
        <mxCell id="1" parent="0" />
      </root>
    </mxGraphModel>
  </diagram>
</mxfile>
